<mxfile host="app.diagrams.net" modified="2023-11-09T16:04:13.613Z" agent="Mozilla/5.0 (Windows NT 10.0; Win64; x64; rv:109.0) Gecko/20100101 Firefox/119.0" etag="tgjP62dUeYkWvY6VCSor" version="22.1.0" type="device">
  <diagram name="PÃ¡gina-1" id="gD8i3yPE3mdsLJBzsCMu">
    <mxGraphModel dx="819" dy="426" grid="1" gridSize="10" guides="1" tooltips="1" connect="1" arrows="1" fold="1" page="1" pageScale="1" pageWidth="827" pageHeight="1169" math="0" shadow="0">
      <root>
        <mxCell id="0" />
        <mxCell id="1" parent="0" />
        <mxCell id="IIfgzvcuAKKhDnJcT3Z9-2" value="" style="whiteSpace=wrap;html=1;aspect=fixed;" vertex="1" parent="1">
          <mxGeometry x="80" y="40" width="40" height="40" as="geometry" />
        </mxCell>
        <mxCell id="IIfgzvcuAKKhDnJcT3Z9-4" value="" style="rounded=0;whiteSpace=wrap;html=1;" vertex="1" parent="1">
          <mxGeometry x="110" y="40" width="10" height="40" as="geometry" />
        </mxCell>
        <mxCell id="IIfgzvcuAKKhDnJcT3Z9-5" value="" style="whiteSpace=wrap;html=1;aspect=fixed;" vertex="1" parent="1">
          <mxGeometry x="160" y="40" width="40" height="40" as="geometry" />
        </mxCell>
        <mxCell id="IIfgzvcuAKKhDnJcT3Z9-6" value="" style="rounded=0;whiteSpace=wrap;html=1;" vertex="1" parent="1">
          <mxGeometry x="190" y="40" width="10" height="40" as="geometry" />
        </mxCell>
        <mxCell id="IIfgzvcuAKKhDnJcT3Z9-19" value="" style="endArrow=classic;html=1;rounded=0;exitX=1;exitY=0.5;exitDx=0;exitDy=0;entryX=0;entryY=0.5;entryDx=0;entryDy=0;startArrow=oval;startFill=1;" edge="1" parent="1" source="IIfgzvcuAKKhDnJcT3Z9-4" target="IIfgzvcuAKKhDnJcT3Z9-5">
          <mxGeometry width="50" height="50" relative="1" as="geometry">
            <mxPoint x="170" y="120" as="sourcePoint" />
            <mxPoint x="190" y="100" as="targetPoint" />
          </mxGeometry>
        </mxCell>
        <mxCell id="IIfgzvcuAKKhDnJcT3Z9-26" value="" style="endArrow=classic;html=1;rounded=0;exitX=1;exitY=0.5;exitDx=0;exitDy=0;entryX=0;entryY=0.5;entryDx=0;entryDy=0;startArrow=oval;startFill=1;" edge="1" parent="1">
          <mxGeometry width="50" height="50" relative="1" as="geometry">
            <mxPoint x="200" y="59.71" as="sourcePoint" />
            <mxPoint x="240" y="59.71" as="targetPoint" />
          </mxGeometry>
        </mxCell>
        <mxCell id="IIfgzvcuAKKhDnJcT3Z9-27" value="" style="whiteSpace=wrap;html=1;aspect=fixed;" vertex="1" parent="1">
          <mxGeometry x="240" y="40" width="40" height="40" as="geometry" />
        </mxCell>
        <mxCell id="IIfgzvcuAKKhDnJcT3Z9-28" value="" style="rounded=0;whiteSpace=wrap;html=1;" vertex="1" parent="1">
          <mxGeometry x="270" y="40" width="10" height="40" as="geometry" />
        </mxCell>
        <mxCell id="IIfgzvcuAKKhDnJcT3Z9-29" value="" style="whiteSpace=wrap;html=1;aspect=fixed;" vertex="1" parent="1">
          <mxGeometry x="320" y="40" width="40" height="40" as="geometry" />
        </mxCell>
        <mxCell id="IIfgzvcuAKKhDnJcT3Z9-30" value="" style="rounded=0;whiteSpace=wrap;html=1;" vertex="1" parent="1">
          <mxGeometry x="350" y="40" width="10" height="40" as="geometry" />
        </mxCell>
        <mxCell id="IIfgzvcuAKKhDnJcT3Z9-31" value="" style="endArrow=classic;html=1;rounded=0;exitX=1;exitY=0.5;exitDx=0;exitDy=0;entryX=0;entryY=0.5;entryDx=0;entryDy=0;startArrow=oval;startFill=1;" edge="1" parent="1" source="IIfgzvcuAKKhDnJcT3Z9-28" target="IIfgzvcuAKKhDnJcT3Z9-29">
          <mxGeometry width="50" height="50" relative="1" as="geometry">
            <mxPoint x="330" y="120" as="sourcePoint" />
            <mxPoint x="350" y="100" as="targetPoint" />
          </mxGeometry>
        </mxCell>
        <mxCell id="IIfgzvcuAKKhDnJcT3Z9-32" value="" style="endArrow=classic;html=1;rounded=0;exitX=1;exitY=0.5;exitDx=0;exitDy=0;entryX=0;entryY=0.5;entryDx=0;entryDy=0;startArrow=oval;startFill=1;" edge="1" parent="1">
          <mxGeometry width="50" height="50" relative="1" as="geometry">
            <mxPoint x="360" y="59.71000000000001" as="sourcePoint" />
            <mxPoint x="400" y="59.71000000000001" as="targetPoint" />
          </mxGeometry>
        </mxCell>
        <mxCell id="IIfgzvcuAKKhDnJcT3Z9-33" value="" style="whiteSpace=wrap;html=1;aspect=fixed;" vertex="1" parent="1">
          <mxGeometry x="400" y="40" width="40" height="40" as="geometry" />
        </mxCell>
        <mxCell id="IIfgzvcuAKKhDnJcT3Z9-34" value="" style="rounded=0;whiteSpace=wrap;html=1;" vertex="1" parent="1">
          <mxGeometry x="430" y="40" width="10" height="40" as="geometry" />
        </mxCell>
        <mxCell id="IIfgzvcuAKKhDnJcT3Z9-35" value="" style="whiteSpace=wrap;html=1;aspect=fixed;" vertex="1" parent="1">
          <mxGeometry x="480" y="40" width="40" height="40" as="geometry" />
        </mxCell>
        <mxCell id="IIfgzvcuAKKhDnJcT3Z9-36" value="" style="rounded=0;whiteSpace=wrap;html=1;" vertex="1" parent="1">
          <mxGeometry x="510" y="40" width="10" height="40" as="geometry" />
        </mxCell>
        <mxCell id="IIfgzvcuAKKhDnJcT3Z9-37" value="" style="endArrow=classic;html=1;rounded=0;exitX=1;exitY=0.5;exitDx=0;exitDy=0;entryX=0;entryY=0.5;entryDx=0;entryDy=0;startArrow=oval;startFill=1;" edge="1" parent="1" source="IIfgzvcuAKKhDnJcT3Z9-34" target="IIfgzvcuAKKhDnJcT3Z9-35">
          <mxGeometry width="50" height="50" relative="1" as="geometry">
            <mxPoint x="490" y="120" as="sourcePoint" />
            <mxPoint x="510" y="100" as="targetPoint" />
          </mxGeometry>
        </mxCell>
        <mxCell id="IIfgzvcuAKKhDnJcT3Z9-52" value="" style="edgeStyle=orthogonalEdgeStyle;rounded=0;orthogonalLoop=1;jettySize=auto;html=1;" edge="1" parent="1" source="IIfgzvcuAKKhDnJcT3Z9-40" target="IIfgzvcuAKKhDnJcT3Z9-45">
          <mxGeometry relative="1" as="geometry" />
        </mxCell>
        <mxCell id="IIfgzvcuAKKhDnJcT3Z9-40" value="" style="whiteSpace=wrap;html=1;aspect=fixed;" vertex="1" parent="1">
          <mxGeometry x="80" y="200" width="40" height="40" as="geometry" />
        </mxCell>
        <mxCell id="IIfgzvcuAKKhDnJcT3Z9-41" value="" style="rounded=0;whiteSpace=wrap;html=1;" vertex="1" parent="1">
          <mxGeometry x="110" y="200" width="10" height="40" as="geometry" />
        </mxCell>
        <mxCell id="IIfgzvcuAKKhDnJcT3Z9-42" value="" style="endArrow=classic;html=1;rounded=0;exitX=1;exitY=0.5;exitDx=0;exitDy=0;entryX=0;entryY=0.5;entryDx=0;entryDy=0;startArrow=oval;startFill=1;" edge="1" parent="1" source="IIfgzvcuAKKhDnJcT3Z9-41">
          <mxGeometry width="50" height="50" relative="1" as="geometry">
            <mxPoint x="170" y="280" as="sourcePoint" />
            <mxPoint x="160" y="220" as="targetPoint" />
          </mxGeometry>
        </mxCell>
        <mxCell id="IIfgzvcuAKKhDnJcT3Z9-44" value="" style="whiteSpace=wrap;html=1;aspect=fixed;" vertex="1" parent="1">
          <mxGeometry x="160" y="200" width="40" height="40" as="geometry" />
        </mxCell>
        <mxCell id="IIfgzvcuAKKhDnJcT3Z9-45" value="" style="rounded=0;whiteSpace=wrap;html=1;" vertex="1" parent="1">
          <mxGeometry x="190" y="200" width="10" height="40" as="geometry" />
        </mxCell>
        <mxCell id="IIfgzvcuAKKhDnJcT3Z9-46" value="" style="whiteSpace=wrap;html=1;aspect=fixed;" vertex="1" parent="1">
          <mxGeometry x="240" y="200" width="40" height="40" as="geometry" />
        </mxCell>
        <mxCell id="IIfgzvcuAKKhDnJcT3Z9-47" value="" style="rounded=0;whiteSpace=wrap;html=1;" vertex="1" parent="1">
          <mxGeometry x="270" y="200" width="10" height="40" as="geometry" />
        </mxCell>
        <mxCell id="IIfgzvcuAKKhDnJcT3Z9-48" value="" style="whiteSpace=wrap;html=1;aspect=fixed;" vertex="1" parent="1">
          <mxGeometry x="330" y="200" width="40" height="40" as="geometry" />
        </mxCell>
        <mxCell id="IIfgzvcuAKKhDnJcT3Z9-50" value="" style="whiteSpace=wrap;html=1;aspect=fixed;" vertex="1" parent="1">
          <mxGeometry x="425" y="200" width="40" height="40" as="geometry" />
        </mxCell>
        <mxCell id="IIfgzvcuAKKhDnJcT3Z9-53" value="" style="endArrow=classic;html=1;rounded=0;exitX=1;exitY=0.5;exitDx=0;exitDy=0;entryX=0;entryY=0.5;entryDx=0;entryDy=0;startArrow=oval;startFill=1;" edge="1" parent="1" source="IIfgzvcuAKKhDnJcT3Z9-45" target="IIfgzvcuAKKhDnJcT3Z9-48">
          <mxGeometry width="50" height="50" relative="1" as="geometry">
            <mxPoint x="220" y="260" as="sourcePoint" />
            <mxPoint x="260" y="260" as="targetPoint" />
            <Array as="points">
              <mxPoint x="220" y="220" />
              <mxPoint x="220" y="180" />
              <mxPoint x="310" y="180" />
              <mxPoint x="310" y="220" />
            </Array>
          </mxGeometry>
        </mxCell>
        <mxCell id="IIfgzvcuAKKhDnJcT3Z9-54" value="" style="endArrow=classic;html=1;rounded=0;exitX=0.5;exitY=1;exitDx=0;exitDy=0;entryX=0;entryY=0.5;entryDx=0;entryDy=0;startArrow=oval;startFill=1;" edge="1" parent="1" source="IIfgzvcuAKKhDnJcT3Z9-47" target="IIfgzvcuAKKhDnJcT3Z9-50">
          <mxGeometry width="50" height="50" relative="1" as="geometry">
            <mxPoint x="310" y="280" as="sourcePoint" />
            <mxPoint x="350" y="280" as="targetPoint" />
            <Array as="points">
              <mxPoint x="275" y="270" />
              <mxPoint x="300" y="270" />
              <mxPoint x="410" y="270" />
              <mxPoint x="410" y="220" />
            </Array>
          </mxGeometry>
        </mxCell>
        <mxCell id="IIfgzvcuAKKhDnJcT3Z9-55" value="" style="rounded=0;whiteSpace=wrap;html=1;" vertex="1" parent="1">
          <mxGeometry x="360" y="200" width="10" height="40" as="geometry" />
        </mxCell>
        <mxCell id="IIfgzvcuAKKhDnJcT3Z9-56" value="" style="rounded=0;whiteSpace=wrap;html=1;" vertex="1" parent="1">
          <mxGeometry x="455" y="200" width="10" height="40" as="geometry" />
        </mxCell>
        <mxCell id="IIfgzvcuAKKhDnJcT3Z9-57" value="" style="endArrow=classic;html=1;rounded=0;exitX=1;exitY=0.5;exitDx=0;exitDy=0;entryX=0;entryY=0.5;entryDx=0;entryDy=0;startArrow=oval;startFill=1;" edge="1" parent="1" target="IIfgzvcuAKKhDnJcT3Z9-46">
          <mxGeometry width="50" height="50" relative="1" as="geometry">
            <mxPoint x="373.5" y="219.71" as="sourcePoint" />
            <mxPoint x="413.5" y="219.71" as="targetPoint" />
            <Array as="points">
              <mxPoint x="390" y="220" />
              <mxPoint x="390" y="250" />
              <mxPoint x="300" y="250" />
              <mxPoint x="300" y="190" />
              <mxPoint x="230" y="190" />
              <mxPoint x="230" y="220" />
            </Array>
          </mxGeometry>
        </mxCell>
        <mxCell id="IIfgzvcuAKKhDnJcT3Z9-60" value="" style="endArrow=classic;html=1;rounded=0;exitX=1;exitY=0.5;exitDx=0;exitDy=0;entryX=0;entryY=0.5;entryDx=0;entryDy=0;startArrow=oval;startFill=1;" edge="1" parent="1">
          <mxGeometry width="50" height="50" relative="1" as="geometry">
            <mxPoint x="520" y="59.71000000000001" as="sourcePoint" />
            <mxPoint x="560" y="59.71000000000001" as="targetPoint" />
          </mxGeometry>
        </mxCell>
        <mxCell id="IIfgzvcuAKKhDnJcT3Z9-61" value="null" style="text;html=1;align=center;verticalAlign=middle;resizable=0;points=[];autosize=1;strokeColor=none;fillColor=none;" vertex="1" parent="1">
          <mxGeometry x="560" y="45" width="40" height="30" as="geometry" />
        </mxCell>
        <mxCell id="IIfgzvcuAKKhDnJcT3Z9-62" value="" style="endArrow=classic;html=1;rounded=0;exitX=1;exitY=0.5;exitDx=0;exitDy=0;entryX=0;entryY=0.5;entryDx=0;entryDy=0;startArrow=oval;startFill=1;" edge="1" parent="1">
          <mxGeometry width="50" height="50" relative="1" as="geometry">
            <mxPoint x="465" y="219.71" as="sourcePoint" />
            <mxPoint x="505" y="219.71" as="targetPoint" />
          </mxGeometry>
        </mxCell>
        <mxCell id="IIfgzvcuAKKhDnJcT3Z9-63" value="null" style="text;html=1;align=center;verticalAlign=middle;resizable=0;points=[];autosize=1;strokeColor=none;fillColor=none;" vertex="1" parent="1">
          <mxGeometry x="505" y="205" width="40" height="30" as="geometry" />
        </mxCell>
        <mxCell id="IIfgzvcuAKKhDnJcT3Z9-64" value="" style="endArrow=classic;html=1;rounded=0;entryX=0;entryY=0.5;entryDx=0;entryDy=0;startArrow=oval;startFill=1;" edge="1" parent="1" target="IIfgzvcuAKKhDnJcT3Z9-2">
          <mxGeometry width="50" height="50" relative="1" as="geometry">
            <mxPoint x="50" y="100" as="sourcePoint" />
            <mxPoint x="70" y="110" as="targetPoint" />
            <Array as="points">
              <mxPoint x="50" y="60" />
            </Array>
          </mxGeometry>
        </mxCell>
        <mxCell id="IIfgzvcuAKKhDnJcT3Z9-65" value="lista" style="text;html=1;align=center;verticalAlign=middle;resizable=0;points=[];autosize=1;strokeColor=none;fillColor=none;" vertex="1" parent="1">
          <mxGeometry x="25" y="100" width="50" height="30" as="geometry" />
        </mxCell>
        <mxCell id="IIfgzvcuAKKhDnJcT3Z9-66" value="" style="endArrow=classic;html=1;rounded=0;entryX=0;entryY=0.5;entryDx=0;entryDy=0;startArrow=oval;startFill=1;" edge="1" parent="1">
          <mxGeometry width="50" height="50" relative="1" as="geometry">
            <mxPoint x="50" y="260" as="sourcePoint" />
            <mxPoint x="80" y="220" as="targetPoint" />
            <Array as="points">
              <mxPoint x="50" y="220" />
            </Array>
          </mxGeometry>
        </mxCell>
        <mxCell id="IIfgzvcuAKKhDnJcT3Z9-67" value="lista" style="text;html=1;align=center;verticalAlign=middle;resizable=0;points=[];autosize=1;strokeColor=none;fillColor=none;" vertex="1" parent="1">
          <mxGeometry x="25" y="260" width="50" height="30" as="geometry" />
        </mxCell>
      </root>
    </mxGraphModel>
  </diagram>
</mxfile>
